<svg width="16" height="16" viewBox="0 0 16 16" fill="none" xmlns="http://www.w3.org/2000/svg">
<path opacity="0.4" d="M14 14.6666H2C1.72667 14.6666 1.5 14.44 1.5 14.1666C1.5 13.8933 1.72667 13.6666 2 13.6666H14C14.2733 13.6666 14.5 13.8933 14.5 14.1666C14.5 14.44 14.2733 14.6666 14 14.6666Z" fill="#E08100"/>
<path opacity="0.4" d="M12.6794 2.32006C11.3861 1.02673 10.1194 0.993397 8.79273 2.32006L7.98606 3.12673C7.9194 3.1934 7.89273 3.30006 7.9194 3.3934C8.42607 5.16006 9.8394 6.5734 11.6061 7.08006C11.6327 7.08673 11.6594 7.0934 11.6861 7.0934C11.7594 7.0934 11.8261 7.06673 11.8794 7.0134L12.6794 6.20673C13.3394 5.5534 13.6594 4.92006 13.6594 4.28006C13.6661 3.62006 13.3461 2.98006 12.6794 2.32006Z" fill="#E08100"/>
<path d="M10.4066 7.68666C10.2132 7.59333 10.0266 7.49999 9.84655 7.39333C9.69989 7.30666 9.55989 7.21333 9.41989 7.11333C9.30655 7.03999 9.17322 6.93333 9.04655 6.82666C9.03322 6.81999 8.98655 6.77999 8.93322 6.72666C8.71322 6.53999 8.46655 6.29999 8.24655 6.03333C8.22655 6.01999 8.19322 5.97333 8.14655 5.91333C8.07989 5.83333 7.96655 5.69999 7.86655 5.54666C7.78655 5.44666 7.69322 5.29999 7.60655 5.15333C7.49989 4.97333 7.40655 4.79333 7.31322 4.60666C7.21989 4.40666 7.14655 4.21333 7.07989 4.03333L2.89322 8.21999C2.80655 8.30666 2.72655 8.47333 2.70655 8.58666L2.34655 11.14C2.27989 11.5933 2.40655 12.02 2.68655 12.3067C2.92655 12.54 3.25989 12.6667 3.61989 12.6667C3.69989 12.6667 3.77989 12.66 3.85989 12.6467L6.41989 12.2867C6.53989 12.2667 6.70655 12.1867 6.78655 12.1L10.9732 7.91333C10.7866 7.84666 10.6066 7.77333 10.4066 7.68666Z" fill="#E08100"/>
</svg>
