<svg width="20" height="20" viewBox="0 0 20 20" fill="none" xmlns="http://www.w3.org/2000/svg">
<path fill-rule="evenodd" ule="evenodd" d="M10.0208 1.66666C10.6667 1.66666 11.0659 1.74284 11.4825 2.23667C11.7742 2.58646 11.875 3.04526 11.875 3.20987C11.875 3.45678 12.1875 3.51851 13.4375 3.51851C14.6103 3.51851 14.9342 3.54512 15.6446 4.17624C16.0443 4.5314 16.25 5.05405 16.25 5.58879V16.0022C16.25 16.7103 15.9995 17.3956 15.5429 17.9368L15.508 17.9782C15.318 18.2034 15.0383 18.3333 14.7437 18.3333H5.25632C4.96168 18.3333 4.68203 18.2034 4.49203 17.9782L4.22142 17.6575C3.91699 17.2967 3.75 16.8398 3.75 16.3677V5.61682C3.75 5.06314 3.96688 4.53149 4.35417 4.13579C4.9375 3.55966 5.0625 3.51851 6.54167 3.51851C7.79167 3.51851 8.125 3.45678 8.10417 3.23044C8.08333 3.06583 8.14789 2.58646 8.46039 2.23667C8.89789 1.72227 9.375 1.66666 10.0208 1.66666ZM9.45833 3.77483C9.45833 3.78221 9.45973 3.78955 9.46265 3.79632C9.5487 3.99587 9.75491 4.11452 10.0417 4.07406C10.3958 4.05349 10.5208 3.90945 10.5208 3.51851C10.5208 3.14814 10.3958 2.98353 10.0625 2.94238C9.8125 2.90122 9.54167 3.00411 9.45833 3.14814C9.39682 3.28989 9.39585 3.57114 9.45541 3.75654C9.45731 3.76247 9.45833 3.7686 9.45833 3.77483ZM5.0625 11.1523L5.09711 16.0236C5.10102 16.5731 5.54757 17.0164 6.09709 17.0164H13.8958C14.4481 17.0164 14.8958 16.5687 14.8958 16.0164V5.84306C14.8958 5.30402 14.4686 4.86198 13.9299 4.84364L12.4526 4.79332C12.1283 4.78228 11.8518 5.02608 11.822 5.34915C11.793 5.66425 11.5287 5.90534 11.2123 5.90534H9.14135C8.62458 5.90534 8.3387 5.44665 8.04872 5.01891C7.88245 4.77365 7.53012 4.77365 6.66667 4.77365C5.66667 4.77365 5.17147 4.83064 5.11151 5.15611C5.06984 5.30014 5.0625 7.9218 5.0625 11.1523Z" fill="#92929D"/>
</svg>
