<svg width="31" height="30" viewBox="0 0 31 30" fill="none" xmlns="http://www.w3.org/2000/svg">
<path d="M22.9654 12.7041V12C22.9654 8.13401 19.8314 5 15.9654 5C12.0994 5 8.9654 8.13401 8.9654 12V12.7041C8.9654 13.5491 8.71528 14.3752 8.24656 15.0783L7.09796 16.8012C6.04882 18.3749 6.84975 20.5139 8.67446 21.0116C13.4479 22.3134 18.4829 22.3134 23.2563 21.0116C25.081 20.5139 25.882 18.3749 24.8328 16.8012L23.6842 15.0783C23.2155 14.3752 22.9654 13.5491 22.9654 12.7041Z" stroke="#8F8E91" stroke-width="1.5"/>
<path d="M11.4648 22C12.1199 23.7478 13.8873 25 15.9648 25C18.0424 25 19.8098 23.7478 20.4648 22" stroke="#8F8E91" stroke-width="1.5" stroke-linecap="round"/>
<path d="M15.9648 9V13" stroke="#8F8E91" stroke-width="1.5" stroke-linecap="round"/>
<circle cx="22.9648" cy="6" r="4" fill="#C81107"/>
</svg>
